# xmcd
#
# Track frame offsets: 
#        150
#        32202
#        49365
#        71707
#        93767
#        133310
#        160130
#        184742
#        205607
#        236230
#
# Disc length: 3602 seconds
#
# Revision: 0
# Processed by: cddbd v1.4PL0 Copyright (c) Steve Scherf et al.
# Submitted via: ExactAudioCopy v0.95a3
#
DISCID=8f0e100a
DTITLE=Rondo's Blues Deluxe - Cross-Eyed Cat
DYEAR=1992
DGENRE=Blues
TTITLE0=Cross-Eyed Cat
TTITLE1=Black Nights
TTITLE2=I've Got To Leave This Woman
TTITLE3=Dust My Broom
TTITLE4=Give Me An Hour In Your Garden
TTITLE5=It Hurts Before You Heal
TTITLE6=The Same Thing
TTITLE7=Three Hundred Pounds
TTITLE8=It Hurts Me Too
TTITLE9=Bflat Minor Blues
EXTD=
EXTT0=
EXTT1=
EXTT2=
EXTT3=
EXTT4=
EXTT5=
EXTT6=
EXTT7=
EXTT8=
EXTT9=
PLAYORDER=
